<?xml version="1.0" encoding="UTF-8"?>
<svg id="svg2" xmlns="http://www.w3.org/2000/svg" viewBox="0 0 512 512">
  <defs>
    <style>
      .cls-1 {
        fill: #a9a9a8;
      }
    </style>
  </defs>
  <path id="path6054" class="cls-1" d="M31,313.73l4.95-115.45h28.43l25.96,71.7,25.96-71.7h27.2l7.42,115.45h-21.02l-6.18-68.47-21.02,68.47h-22.25l-22.25-70.95-3.71,70.95h-23.49ZM179.35,313.73v-115.45h66.76v17.31h-43.89v28.43h41.41v17.31h-41.41v30.91h45.12v21.49h-67.99ZM273.85,313.73v-115.45h22.26l45.22,75.19v-75.19h21.29v115.45h-21.29l-45.22-78.81v78.81h-22.26ZM391.37,198.27h24.11v83.45c0,19.79,40.18,15.5,40.18,0v-83.45h25.34v85.92c0,20.09-22.56,29.53-45.12,29.53-22.56,0-45.12-9.42-45.12-29.53l.62-85.92Z"/>
</svg>